# This file uses meters as units for non-parametric coordinates.

v -36.177525 24.949024 -36.472244
v -37.460182 24.949024 -35.189564
v -36.175858 24.949024 37.261292
v -37.458580 24.949024 35.978600
v 37.469597 60.818485 -35.950375
v 36.188305 60.818485 -37.231670
v 36.188305 60.818363 37.343414
v 37.469597 60.818367 36.062119
v 35.427483 24.949024 -36.471584
v 36.710175 24.949024 -35.188869
v 36.710175 24.949024 35.978600
v 35.427483 24.949024 37.261292
v -36.936733 60.818485 -37.231689
v -38.218025 60.818485 -35.950397
v -38.217968 60.818367 36.062119
v -36.936676 60.818363 37.343414
v -48.567249 1.774837 -49.923615
v -48.567387 0.000000 -48.148781
v -50.342049 1.774837 -48.148800
v -48.565067 1.774837 50.076843
v -50.339947 1.774837 48.301998
v -48.565109 0.000000 48.301998
v -48.565067 23.669241 -48.148800
v -48.565243 21.894402 -49.923637
v -50.340080 21.894402 -48.148800
v 49.658905 21.894402 -48.148727
v 47.884068 21.894402 -49.923565
v 47.884068 23.669241 -48.148800
v 47.884068 21.894320 50.076843
v 49.658905 21.894323 48.301998
v 47.884068 23.669165 48.301998
v 47.884068 1.774837 -49.922752
v 49.658905 1.774837 -48.147896
v 47.884068 0.000000 -48.147839
v 49.658905 1.774837 48.301998
v 47.884068 1.774837 50.076843
v 47.884068 0.000000 48.301998
v -50.339905 21.894323 48.301998
v -48.565067 21.894320 50.076843
v -48.565067 23.669165 48.301998
v -33.298279 62.500336 -33.538548
v 32.549877 62.500336 -33.538559
v 33.720848 62.500336 -32.367580
v 33.712906 62.500492 32.471375
v 32.541931 62.500675 33.626469
v -33.290310 62.500675 33.626469
v -34.461266 62.500492 32.471375
v -34.469231 62.500336 -32.367573
v -36.130936 63.813786 -36.427853
v 35.382526 63.813786 -36.427868
v 36.654247 63.813786 -35.156139
v 36.645622 63.813953 35.261303
v 35.373905 63.814152 36.515778
v -36.122284 63.814152 36.515778
v -37.393974 63.813953 35.261303
v -37.402634 63.813786 -35.156132
v -36.130936 100.083900 -36.427853
v 35.382526 100.083900 -36.427868
v 36.654247 100.083900 -35.156139
v 36.645622 100.084084 35.261303
v 35.373905 100.084259 36.515778
v -36.122284 100.084259 36.515778
v -37.393974 100.084084 35.261303
v -37.402634 100.083900 -35.156132
v -33.747150 101.071983 -33.996399
v 32.998753 101.071983 -33.996414
v 34.185688 101.071983 -32.809467
v 34.177635 101.072136 32.913479
v 32.990700 101.072304 34.084324
v -33.739075 101.072304 34.084324
v -34.925991 101.072136 32.913479
v -34.934067 101.071983 -32.809460
v -35.651798 102.173233 -35.939137
v 34.903400 102.173233 -35.939152
v 36.158077 102.173233 -34.684464
v 36.149563 102.173393 34.789391
v 34.894890 102.173576 36.027061
v -35.643265 102.173576 36.027061
v -36.897919 102.173393 34.789391
v -36.906456 102.173233 -34.684456
v -33.912643 133.478531 -37.178223
v 39.072144 136.982193 -37.178242
v 40.370026 136.982193 -35.880348
v 40.361217 136.982346 35.985863
v 39.063339 136.982544 37.266151
v -33.903816 136.982544 37.266151
v -35.201675 136.982346 35.985863
v -35.210506 133.478531 -35.880341
v -33.065693 135.097305 -36.314331
v 38.225189 138.600967 -36.314350
v 39.492954 138.600967 -35.046581
v 39.484360 138.601120 35.151695
v 38.216599 138.601318 36.402260
v -33.057079 138.601318 36.402260
v -34.324818 138.601120 35.151695
v -34.333435 135.097305 -35.046558
v -34.372406 136.426773 -37.647190
v 39.531906 139.930435 -37.647202
v 40.846146 139.930435 -36.332951
v 40.837231 139.930603 36.438705
v 39.523006 139.930801 37.735115
v -34.363468 139.930801 37.735115
v -35.677692 139.930603 36.438705
v -35.686630 136.426773 -36.332947
v -35.316273 173.263565 -39.594666
v 38.486382 173.144058 -35.721516
v 39.729931 173.139374 -34.340195
v 35.906998 172.997986 38.330837
v 34.526638 172.997742 39.556587
v -39.258202 173.117203 35.684361
v -40.502674 173.121704 34.320858
v -36.697571 173.263123 -38.351109
v 51.137657 196.322693 -47.305695
v 51.047459 198.094086 -45.529697
v 52.816994 196.316376 -45.440311
v 45.894360 196.128082 52.557018
v 47.759819 196.128677 50.877632
v 45.990108 197.906372 50.788216
v 51.009338 174.424927 -45.577847
v 51.105217 176.203201 -47.346630
v 52.784592 176.196869 -45.481220
v -47.076843 176.358566 -50.721878
v -45.211426 176.359161 -52.401257
v -45.307129 174.580887 -50.632534
v -50.452541 176.164612 47.461521
v -52.131916 176.170944 45.596104
v -50.362202 174.393250 45.685520
v -45.181034 196.478653 -52.359638
v -47.046452 196.478073 -50.680241
v -45.271374 198.250046 -50.583569
v -52.101479 196.290375 45.636913
v -50.422104 196.284042 47.502331
v -50.326397 198.062332 45.733528
v 47.729343 176.009247 50.836823
v 45.863926 176.008667 52.516212
v 45.954262 174.237289 50.740208
vt 0.768645 0.894804
vt 0.764033 0.894915
vt 0.761833 0.803675
vt 0.766440 0.803564
vt 0.717038 0.404653
vt 0.721651 0.404581
vt 0.721860 0.495826
vt 0.717252 0.495898
vt 0.488997 0.184594
vt 0.493609 0.184497
vt 0.495530 0.275742
vt 0.490923 0.275839
vt 0.069875 0.496506
vt 0.065261 0.496536
vt 0.063456 0.405307
vt 0.068064 0.405277
vt 0.952414 0.803004
vt 0.950752 0.894255
vt 0.307778 0.275819
vt 0.308001 0.184573
vt 0.254038 0.405535
vt 0.251981 0.496758
vt 0.534108 0.495901
vt 0.536040 0.404655
vt 0.503080 0.369843
vt 0.503078 0.318675
vt 0.748376 0.318666
vt 0.748378 0.369835
vt 0.276672 0.098410
vt 0.521966 0.098444
vt 0.521962 0.149613
vt 0.276665 0.149580
vt 0.503078 0.312292
vt 0.748376 0.312282
vt 0.730866 0.931174
vt 0.737249 0.931155
vt 0.737397 0.982323
vt 0.731013 0.982342
vt 0.754761 0.369833
vt 0.754759 0.318666
vt 0.503080 0.376227
vt 0.748378 0.376218
vt 0.528350 0.098445
vt 0.528345 0.149614
vt 0.521961 0.155996
vt 0.276664 0.155964
vt 0.031764 0.531104
vt 0.038147 0.531114
vt 0.038077 0.582281
vt 0.031693 0.582273
vt 0.521967 0.092061
vt 0.276672 0.092028
vt 0.737417 0.988708
vt 0.731879 0.985533
vt 0.753904 0.315474
vt 0.737231 0.924772
vt 0.731711 0.927980
vt 0.527490 0.152805
vt 0.032623 0.527915
vt 0.038156 0.524730
vt 0.527495 0.095253
vt 0.032544 0.585466
vt 0.038068 0.588665
vt 0.753906 0.373026
vt 0.982523 0.924035
vt 0.982542 0.930418
vt 0.982695 0.981588
vt 0.982714 0.987972
vt 0.782528 0.008708
vt 0.782534 0.254006
vt 0.537235 0.254003
vt 0.537235 0.008708
vt 0.283369 0.582619
vt 0.283360 0.589002
vt 0.283440 0.531450
vt 0.283449 0.525067
vt 0.066607 0.493249
vt 0.720310 0.407905
vt 0.765364 0.891560
vt 0.492268 0.187847
vt 0.775662 0.793215
vt 0.943129 0.792712
vt 0.481809 0.286286
vt 0.316908 0.286289
vt 0.077352 0.394913
vt 0.244778 0.395145
vt 0.708121 0.506367
vt 0.543220 0.506350
vt 0.494330 0.278942
vt 0.484922 0.289123
vt 0.064661 0.402171
vt 0.074244 0.392115
vt 0.763021 0.800472
vt 0.772538 0.790391
vt 0.720659 0.499002
vt 0.711195 0.509204
vt 0.768434 0.785164
vt 0.950309 0.784618
vt 0.488903 0.294459
vt 0.309815 0.294464
vt 0.070161 0.386832
vt 0.251992 0.387084
vt 0.715215 0.514541
vt 0.536126 0.514523
vt 0.484922 0.283450
vt 0.492284 0.291379
vt 0.074235 0.397704
vt 0.066776 0.389863
vt 0.772555 0.796058
vt 0.765059 0.788252
vt 0.711196 0.503531
vt 0.718554 0.511461
vt 0.768157 0.692920
vt 0.950032 0.692374
vt 0.488906 0.386702
vt 0.309817 0.386709
vt 0.070287 0.294588
vt 0.252118 0.294839
vt 0.715207 0.606785
vt 0.536119 0.606767
vt 0.493477 0.294459
vt 0.493480 0.386702
vt 0.065617 0.386825
vt 0.065744 0.294582
vt 0.763860 0.785178
vt 0.763583 0.692934
vt 0.719758 0.514543
vt 0.719750 0.606787
vt 0.774199 0.686227
vt 0.943949 0.685719
vt 0.482936 0.393463
vt 0.315788 0.393471
vt 0.076357 0.287921
vt 0.246066 0.288156
vt 0.709236 0.613547
vt 0.542087 0.613528
vt 0.492260 0.389811
vt 0.486067 0.396365
vt 0.066938 0.291519
vt 0.073231 0.285057
vt 0.764791 0.689822
vt 0.771058 0.683336
vt 0.718519 0.609895
vt 0.712327 0.616449
vt 0.769339 0.680561
vt 0.948777 0.680025
vt 0.487706 0.399206
vt 0.311018 0.399217
vt 0.071523 0.282234
vt 0.250917 0.282484
vt 0.714006 0.619293
vt 0.537317 0.619272
vt 0.486156 0.390659
vt 0.491110 0.396244
vt 0.073135 0.290677
vt 0.068117 0.285148
vt 0.770985 0.689036
vt 0.765941 0.683532
vt 0.712418 0.610743
vt 0.717369 0.616329
vt 0.765984 0.591987
vt 0.951602 0.591433
vt 0.490754 0.487792
vt 0.307981 0.487804
vt 0.068556 0.193645
vt 0.254128 0.193904
vt 0.717039 0.707879
vt 0.534266 0.707857
vt 0.492216 0.399045
vt 0.495419 0.487625
vt 0.067043 0.282385
vt 0.063922 0.193802
vt 0.764829 0.680734
vt 0.761320 0.592166
vt 0.718485 0.619133
vt 0.721672 0.707713
vt 0.768124 0.587314
vt 0.949433 0.586774
vt 0.488633 0.492474
vt 0.310102 0.492486
vt 0.070716 0.188982
vt 0.251981 0.189234
vt 0.714918 0.712562
vt 0.536387 0.712540
vt 0.494976 0.489782
vt 0.492758 0.494417
vt 0.064353 0.191689
vt 0.066610 0.187071
vt 0.761752 0.590018
vt 0.763990 0.585391
vt 0.721225 0.709872
vt 0.719006 0.714509
vt 0.764787 0.582536
vt 0.952743 0.581975
vt 0.491906 0.497297
vt 0.306831 0.497312
vt 0.067400 0.184188
vt 0.255310 0.184451
vt 0.718190 0.717386
vt 0.533114 0.717363
vt 0.492353 0.489837
vt 0.495762 0.494564
vt 0.066998 0.191568
vt 0.063546 0.186871
vt 0.764407 0.589955
vt 0.760934 0.585274
vt 0.718599 0.709922
vt 0.722006 0.714651
vt 0.764536 0.498104
vt 0.952492 0.497546
vt 0.491913 0.581729
vt 0.306837 0.581745
vt 0.067518 0.099757
vt 0.255427 0.100019
vt 0.718180 0.801818
vt 0.533104 0.801795
vt 0.496633 0.497297
vt 0.496640 0.581729
vt 0.062705 0.184183
vt 0.062823 0.099750
vt 0.760060 0.582550
vt 0.759809 0.498117
vt 0.722885 0.717387
vt 0.722874 0.801819
vt 0.521971 0.615444
vt 0.521981 0.666613
vt 0.276684 0.666665
vt 0.276674 0.615496
vt 0.748330 0.883134
vt 0.503035 0.883071
vt 0.503046 0.831903
vt 0.748343 0.831964
vt 0.521983 0.672996
vt 0.276686 0.673048
vt 0.528354 0.615443
vt 0.528365 0.666611
vt 0.037055 0.066260
vt 0.030672 0.066251
vt 0.030744 0.015083
vt 0.037127 0.015091
vt 0.521969 0.609061
vt 0.276672 0.609112
vt 0.737436 0.413725
vt 0.737587 0.464894
vt 0.731204 0.464913
vt 0.731052 0.413745
vt 0.503047 0.825519
vt 0.748344 0.825581
vt 0.754727 0.831966
vt 0.754714 0.883136
vt 0.503034 0.889455
vt 0.748329 0.889518
vt 0.527511 0.669803
vt 0.031603 0.011892
vt 0.037135 0.008707
vt 0.527498 0.612251
vt 0.732068 0.468103
vt 0.737606 0.471278
vt 0.753872 0.828775
vt 0.731898 0.410551
vt 0.737417 0.407342
vt 0.753858 0.886327
vt 0.031523 0.069443
vt 0.037047 0.072643
vt 0.982899 0.470550
vt 0.982880 0.464167
vt 0.982734 0.412998
vt 0.982715 0.406614
vt 0.030678 0.927210
vt 0.030672 0.681912
vt 0.275971 0.681914
vt 0.275971 0.927210
vt 0.282428 0.009050
vt 0.282419 0.015434
vt 0.282347 0.066602
vt 0.282338 0.072986
vt 0.721491 0.798491
vt 0.064159 0.103038
vt 0.495266 0.578398
vt 0.761192 0.501444
vn -0.014674 0.453565 -0.891102
vn -0.895615 0.444581 -0.014866
vn -0.999219 0.035110 -0.018136
vn -0.017965 0.033657 -0.999272
vn -0.895294 0.445216 0.015184
vn -0.014575 0.449651 0.893085
vn -0.018093 0.052443 0.998460
vn -0.999236 0.034781 0.017809
vn 0.894710 0.446401 -0.014863
vn 0.014677 0.453960 -0.890901
vn 0.017975 0.033657 -0.999272
vn 0.999220 0.035088 -0.018148
vn 0.014571 0.450031 0.892894
vn 0.894383 0.447046 0.015160
vn 0.999237 0.034759 0.017798
vn 0.018093 0.052443 0.998460
vn -0.996653 0.079948 -0.017042
vn -0.996662 -0.079847 -0.017039
vn -0.996661 -0.079850 0.017065
vn -0.996653 0.079946 0.017063
vn 0.996657 -0.079897 0.017052
vn 0.996658 -0.079895 -0.017051
vn 0.996657 0.079900 -0.017053
vn 0.996657 0.079898 0.017052
vn -0.017850 -0.999681 -0.017849
vn -0.017849 -0.999681 0.017849
vn -0.017046 0.079870 -0.996660
vn -0.017048 -0.079923 -0.996655
vn -0.017052 0.079898 0.996657
vn -0.017052 -0.079899 0.996657
vn -0.172634 0.969270 -0.175255
vn -0.177649 0.967963 0.177449
vn 0.017058 -0.079919 -0.996655
vn 0.017056 0.079876 -0.996659
vn 0.172447 0.969394 -0.174752
vn 0.177420 0.968104 0.176911
vn 0.017052 0.079898 0.996657
vn 0.017052 -0.079898 0.996657
vn 0.017850 -0.999681 -0.017850
vn 0.017850 -0.999681 0.017849
vn -0.011544 0.274222 -0.961597
vn 0.011544 0.274222 -0.961597
vn 0.960141 0.279268 -0.011796
vn 0.960099 0.279402 0.012012
vn 0.011378 0.280855 0.959683
vn -0.011378 0.280855 0.959683
vn -0.960098 0.279407 0.012012
vn -0.960139 0.279274 -0.011795
vn -0.017722 -0.042090 -0.998957
vn 0.017722 -0.042090 -0.998957
vn 0.998901 -0.043339 -0.017861
vn 0.998897 -0.043316 0.018102
vn 0.017489 -0.042089 0.998961
vn -0.017489 -0.042089 0.998961
vn -0.998897 -0.043316 0.018102
vn -0.998901 -0.043339 -0.017860
vn -0.017665 0.035479 -0.999214
vn 0.017665 0.035480 -0.999214
vn 0.999173 0.036551 -0.017806
vn 0.999170 0.036531 0.018049
vn 0.017430 0.035479 0.999218
vn -0.017430 0.035479 0.999218
vn -0.999170 0.036531 0.018049
vn -0.999173 0.036551 -0.017805
vn -0.011727 0.250046 -0.968163
vn 0.011727 0.250045 -0.968163
vn 0.967312 0.253308 -0.011959
vn 0.967304 0.253323 0.012239
vn 0.011526 0.250001 0.968177
vn -0.011526 0.250001 0.968177
vn -0.967304 0.253326 0.012239
vn -0.967311 0.253310 -0.011959
vn -0.017228 -0.068737 -0.997486
vn 0.017592 -0.068354 -0.997506
vn 0.988775 -0.148335 -0.017917
vn 0.988772 -0.148321 0.018165
vn 0.015647 -0.064874 0.997771
vn -0.018637 -0.065063 0.997707
vn -0.999702 0.017788 0.016717
vn -0.999694 0.017879 -0.017118
vn -0.015162 -0.018330 -0.999717
vn 0.021236 -0.016694 -0.999635
vn 0.995013 -0.098208 -0.017449
vn 0.995008 -0.098213 0.017684
vn 0.019467 -0.017168 0.999663
vn -0.016320 -0.016185 0.999736
vn -0.997416 0.069453 0.018393
vn -0.997536 0.067372 -0.019546
vn -0.004734 -0.177964 -0.984026
vn 0.022659 -0.204752 -0.978552
vn 0.980971 -0.193703 -0.013268
vn 0.980963 -0.193724 0.013546
vn 0.012837 -0.191377 0.981433
vn -0.012837 -0.191376 0.981433
vn -0.977969 -0.207431 0.023430
vn -0.983679 -0.179871 -0.004738
vn 0.007680 -0.025395 -0.999648
vn 0.043126 -0.020485 -0.998860
vn 0.998105 0.061149 0.006840
vn 0.997148 0.063003 0.041545
vn -0.004639 -0.025682 0.999659
vn -0.040276 -0.024287 0.998893
vn -0.994402 -0.105597 -0.003776
vn -0.993470 -0.106574 -0.040744
vn 0.008355 -0.441953 -0.896999
vn 0.038447 -0.436747 -0.898762
vn 0.918203 -0.395987 0.009918
vn 0.904285 -0.424879 0.041789
vn -0.013289 -0.435951 0.899872
vn -0.042331 -0.491673 0.869750
vn -0.888745 -0.458266 -0.011209
vn -0.877909 -0.477163 -0.039896
vn 0.996055 -0.081526 0.035052
vn 0.996304 0.078267 0.035380
vn 0.994516 0.078204 0.069436
vn 0.994267 -0.081591 0.069110
vn -0.996059 0.081475 -0.035042
vn -0.994272 0.081539 -0.069099
vn -0.994513 -0.078255 -0.069424
vn -0.996301 -0.078319 -0.035366
vn 0.020273 0.999684 -0.014862
vn 0.018402 0.999615 0.020788
vn 0.069138 -0.077958 -0.994556
vn 0.069382 0.081835 -0.994228
vn -0.035328 -0.081865 0.996017
vn -0.035086 0.077931 0.996341
vn 0.190438 -0.966124 -0.174177
vn 0.170834 -0.966992 0.189057
vn 0.035323 0.081886 -0.996016
vn 0.035082 -0.077908 -0.996343
vn -0.177903 -0.962324 -0.205628
vn -0.197608 -0.963285 0.181752
vn -0.069385 -0.081810 0.994230
vn -0.069144 0.077985 0.994554
vn -0.015377 0.999742 -0.016733
vn -0.017248 0.999672 0.018917
s 1
f 1/1/1 2/2/2 14/3/3 13/4/4
f 4/5/5 3/6/6 16/7/7 15/8/8
f 10/9/9 9/10/10 6/11/11 5/12/12
f 12/13/13 11/14/14 8/15/15 7/16/16
f 1/1/1 13/4/4 6/17/11 9/18/10
f 10/9/9 5/12/12 8/19/15 11/20/14
f 12/13/13 7/16/16 16/21/7 3/22/6
f 4/5/5 15/8/8 14/23/3 2/24/2
f 25/25/17 19/26/18 21/27/19 38/28/20
f 35/29/21 33/30/22 26/31/23 30/32/24
f 19/26/18 18/33/25 22/34/26 21/27/19
f 25/35/17 24/36/27 17/37/28 19/38/18
f 39/39/29 38/28/20 21/27/19 20/40/30
f 23/41/31 25/25/17 38/28/20 40/42/32
f 32/43/33 27/44/34 26/31/23 33/30/22
f 26/31/23 28/45/35 31/46/36 30/32/24
f 30/47/24 29/48/37 36/49/38 35/50/21
f 34/51/39 33/30/22 35/29/21 37/52/40
f 17/37/28 18/53/25 19/54/18
f 20/55/30 21/27/19 22/34/26
f 23/56/31 24/36/27 25/57/17
f 26/31/23 27/58/34 28/45/35
f 29/48/37 30/59/24 31/60/36
f 32/61/33 33/30/22 34/51/39
f 35/62/21 36/49/38 37/63/40
f 38/28/20 39/64/29 40/42/32
f 23/56/31 28/65/35 27/66/34 24/36/27
f 24/36/27 27/66/34 32/67/33 17/37/28
f 32/67/33 34/68/39 18/53/25 17/37/28
f 22/69/26 18/70/25 34/71/39 37/72/40
f 37/63/40 36/49/38 20/73/30 22/74/26
f 29/48/37 39/75/29 20/73/30 36/49/38
f 29/48/37 31/60/36 40/76/32 39/75/29
f 4/5/5 2/24/2 23/41/31 40/42/32
f 1/1/1 9/18/10 28/65/35 23/56/31
f 10/9/9 11/20/14 31/46/36 28/45/35
f 12/13/13 3/22/6 40/76/32 31/60/36
f 12/13/13 31/60/36 11/77/14
f 40/42/32 3/78/6 4/5/5
f 23/56/31 2/79/2 1/1/1
f 10/9/9 28/45/35 9/80/10
f 6/17/11 13/4/4 41/81/41 42/82/42
f 8/19/15 5/12/12 43/83/43 44/84/44
f 16/21/7 7/16/16 45/85/45 46/86/46
f 14/23/3 15/8/8 47/87/47 48/88/48
f 5/12/12 6/89/11 42/90/42 43/83/43
f 7/16/16 8/91/15 44/92/44 45/85/45
f 13/4/4 14/93/3 48/94/48 41/81/41
f 15/8/8 16/95/7 46/96/46 47/87/47
f 42/82/42 41/81/41 49/97/49 50/98/50
f 44/84/44 43/83/43 51/99/51 52/100/52
f 46/86/46 45/85/45 53/101/53 54/102/54
f 48/88/48 47/87/47 55/103/55 56/104/56
f 43/83/43 42/105/42 50/106/50 51/99/51
f 45/85/45 44/107/44 52/108/52 53/101/53
f 41/81/41 48/109/48 56/110/56 49/97/49
f 47/87/47 46/111/46 54/112/54 55/103/55
f 50/98/50 49/97/49 57/113/57 58/114/58
f 52/100/52 51/99/51 59/115/59 60/116/60
f 54/102/54 53/101/53 61/117/61 62/118/62
f 56/104/56 55/103/55 63/119/63 64/120/64
f 51/99/51 50/121/50 58/122/58 59/115/59
f 53/101/53 52/123/52 60/124/60 61/117/61
f 49/97/49 56/125/56 64/126/64 57/113/57
f 55/103/55 54/127/54 62/128/62 63/119/63
f 58/114/58 57/113/57 65/129/65 66/130/66
f 60/116/60 59/115/59 67/131/67 68/132/68
f 62/118/62 61/117/61 69/133/69 70/134/70
f 64/120/64 63/119/63 71/135/71 72/136/72
f 59/115/59 58/137/58 66/138/66 67/131/67
f 61/117/61 60/139/60 68/140/68 69/133/69
f 57/113/57 64/141/64 72/142/72 65/129/65
f 63/119/63 62/143/62 70/144/70 71/135/71
f 66/130/66 65/129/65 73/145/73 74/146/74
f 68/132/68 67/131/67 75/147/75 76/148/76
f 70/134/70 69/133/69 77/149/77 78/150/78
f 72/136/72 71/135/71 79/151/79 80/152/80
f 67/131/67 66/153/66 74/154/74 75/147/75
f 69/133/69 68/155/68 76/156/76 77/149/77
f 65/129/65 72/157/72 80/158/80 73/145/73
f 71/135/71 70/159/70 78/160/78 79/151/79
f 74/146/74 73/145/73 81/161/81 82/162/82
f 76/148/76 75/147/75 83/163/83 84/164/84
f 78/150/78 77/149/77 85/165/85 86/166/86
f 80/152/80 79/151/79 87/167/87 88/168/88
f 75/147/75 74/169/74 82/170/82 83/163/83
f 77/149/77 76/171/76 84/172/84 85/165/85
f 73/145/73 80/173/80 88/174/88 81/161/81
f 79/151/79 78/175/78 86/176/86 87/167/87
f 82/162/82 81/161/81 89/177/89 90/178/90
f 84/164/84 83/163/83 91/179/91 92/180/92
f 86/166/86 85/165/85 93/181/93 94/182/94
f 88/168/88 87/167/87 95/183/95 96/184/96
f 83/163/83 82/185/82 90/186/90 91/179/91
f 85/165/85 84/187/84 92/188/92 93/181/93
f 81/161/81 88/189/88 96/190/96 89/177/89
f 87/167/87 86/191/86 94/192/94 95/183/95
f 90/178/90 89/177/89 97/193/97 98/194/98
f 92/180/92 91/179/91 99/195/99 100/196/100
f 94/182/94 93/181/93 101/197/101 102/198/102
f 96/184/96 95/183/95 103/199/103 104/200/104
f 91/179/91 90/201/90 98/202/98 99/195/99
f 93/181/93 92/203/92 100/204/100 101/197/101
f 89/177/89 96/205/96 104/206/104 97/193/97
f 95/183/95 94/207/94 102/208/102 103/199/103
f 98/194/98 97/193/97 105/209/105 106/210/106
f 100/196/100 99/195/99 107/211/107 108/212/108
f 102/198/102 101/197/101 109/213/109 110/214/110
f 104/200/104 103/199/103 111/215/111 112/216/112
f 99/195/99 98/217/98 106/218/106 107/211/107
f 101/197/101 100/219/100 108/220/108 109/213/109
f 97/193/97 104/221/104 112/222/112 105/209/105
f 103/199/103 102/223/102 110/224/110 111/215/111
f 121/225/113 115/226/114 117/227/115 134/228/116
f 131/229/117 129/230/118 122/231/119 126/232/120
f 115/226/114 114/233/121 118/234/122 117/227/115
f 121/225/113 120/235/123 113/236/124 115/226/114
f 135/237/125 134/238/116 117/239/115 116/240/126
f 119/241/127 121/225/113 134/228/116 136/242/128
f 128/243/129 123/244/130 122/245/119 129/246/118
f 122/231/119 124/247/131 127/248/132 126/232/120
f 126/232/120 125/249/133 132/250/134 131/229/117
f 130/251/135 129/230/118 131/229/117 133/252/136
f 113/253/124 114/233/121 115/226/114
f 116/240/126 117/254/115 118/255/122
f 119/241/127 120/256/123 121/225/113
f 122/257/119 123/244/130 124/258/131
f 125/259/133 126/232/120 127/248/132
f 128/243/129 129/260/118 130/261/135
f 131/229/117 132/262/134 133/252/136
f 134/263/116 135/237/125 136/264/128
f 119/265/127 124/258/131 123/244/130 120/266/123
f 120/266/123 123/244/130 128/243/129 113/267/124
f 128/243/129 130/261/135 114/268/121 113/267/124
f 118/269/122 114/270/121 130/271/135 133/272/136
f 133/273/136 132/274/134 116/240/126 118/255/122
f 125/275/133 135/237/125 116/240/126 132/274/134
f 125/275/133 127/276/132 136/264/128 135/237/125
f 108/212/108 107/211/107 119/241/127 136/242/128
f 106/210/106 105/209/105 124/258/131 119/265/127
f 112/216/112 111/215/111 127/248/132 124/247/131
f 110/214/110 109/213/109 136/264/128 127/276/132
f 110/277/110 127/248/132 111/215/111
f 136/264/128 109/213/109 108/278/108
f 119/241/127 107/211/107 106/279/106
f 112/280/112 124/258/131 105/209/105
